<?xml version="1.0" encoding="utf-8"?>
<!-- Svg Vector Icons : http://www.onlinewebfonts.com/icon -->
<!DOCTYPE svg PUBLIC "-//W3C//DTD SVG 1.1//EN" "http://www.w3.org/Graphics/SVG/1.1/DTD/svg11.dtd">
<svg version="1.1" xmlns="http://www.w3.org/2000/svg" xmlns:xlink="http://www.w3.org/1999/xlink" x="0px" y="0px" viewBox="0 0 256 256" enable-background="new 0 0 256 256" xml:space="preserve">
<metadata> Svg Vector Icons : http://www.onlinewebfonts.com/icon </metadata>
<g><g><g><g><path fill="#000000" d="M126.3,87.3l9.6-33.2c-8.5-5.7-17.8-10.3-37.4-2.2l-9.6,33.3c7.8-3.2,13.9-4.7,19-4.6C115.7,80.7,121.2,83.9,126.3,87.3z"/><path fill="#000000" d="M87.3,91.4l-0.1,0l-9.5,33.2c19.6-8.1,28.8-3.4,37.3,2.3l9.8-33.5C116.2,87.6,106.8,83.4,87.3,91.4z"/><path fill="#000000" d="M141,57.6L131.4,91c8.5,5.7,18.6,10.4,37.4,2l9.6-33.3C158.8,67.8,149.4,63.3,141,57.6z"/><path fill="#000000" d="M129.8,96.6l-9.7,33.2c8.5,5.8,17.9,10.3,37.4,2.2l9.3-32.3C146.9,106.5,138.2,102.3,129.8,96.6z"/><path fill="#000000" d="M218.8,10H37.2C22.2,10,10,22.2,10,37.2v127.1c0,15,12.2,27.2,27.2,27.2h63.5v9.1c0,5,4.1,9.1,9.1,9.1h36.3c5,0,9.1-4.7,9.1-9.1c0-1.9,0-5.5,0-9.1h63.5c15,0,27.2-12.2,27.2-27.2V37.2C246,22.2,233.8,10,218.8,10z M221.3,180c-3.6,0-6.6-2.9-6.6-6.6c0-3.6,2.9-6.6,6.6-6.6s6.6,3,6.6,6.6C227.8,177,224.9,180,221.3,180z M227.8,146.2c0,5-4.1,9.1-9.1,9.1H37.2c-5,0-9.1-4.1-9.1-9.1V37.2c0-5,4.1-9.1,9.1-9.1h181.5c5,0,9.1,4.1,9.1,9.1V146.2z"/><path fill="#000000" d="M172.3,218.8H83.7c-10.5,0-19,8.5-19,19v8.3h126.5v-8.3C191.2,227.3,182.7,218.8,172.3,218.8z"/></g></g><g></g><g></g><g></g><g></g><g></g><g></g><g></g><g></g><g></g><g></g><g></g><g></g><g></g><g></g><g></g></g></g>
</svg>