<?xml version="1.0" encoding="utf-8"?>
<!-- Svg Vector Icons : http://www.onlinewebfonts.com/icon -->
<!DOCTYPE svg PUBLIC "-//W3C//DTD SVG 1.1//EN" "http://www.w3.org/Graphics/SVG/1.1/DTD/svg11.dtd">
<svg version="1.1" xmlns="http://www.w3.org/2000/svg" xmlns:xlink="http://www.w3.org/1999/xlink" x="0px" y="0px" viewBox="0 0 256 256" enable-background="new 0 0 256 256" xml:space="preserve">
<metadata> Svg Vector Icons : http://www.onlinewebfonts.com/icon </metadata>
<g><g><g><path fill="#000000" d="M42.2,10.4c-5.4,1.2-11.2,6.3-14,11.9l-1.7,3.5V128v102.3l1.8,3.5c2.3,4.6,5.8,8.1,10.4,10.4l3.5,1.8H128h85.9l3.5-1.7c4.5-2.3,8.2-6,10.5-10.5l1.7-3.5V128V25.7l-1.8-3.5c-2.3-4.6-5.8-8.1-10.4-10.4l-3.5-1.8L129,10C78.7,10,43.2,10.1,42.2,10.4z M214.1,22.4c1.5,0.8,2.4,1.6,3.1,3.1l1,2V128v100.5l-1,2c-0.8,1.5-1.6,2.4-3.1,3.1l-2,1.1H128H43.9l-2-1.1c-1.5-0.7-2.4-1.6-3.1-3.1l-1.1-2V128V27.6l1.1-2c0.7-1.5,1.6-2.4,3.1-3.1l2-1H128h84.1L214.1,22.4z"/><path fill="#000000" d="M118.5,37.6c-27.3,5-49.8,25.9-56.7,52.6c-5.5,21.6-0.4,43.7,14.3,61.7c12.5,15.3,32.8,25.4,51.5,25.7c4.9,0.1,6.2-0.5,7.8-3.6c0.7-1.5,0.8-2,0.3-3.5c-0.3-1-1.1-2.3-1.8-2.9c-1.2-1-2-1.2-6.4-1.4c-15.7-1.1-28.2-6.3-38.5-16.3c-8.7-8.4-14.4-19.1-16.9-31.5c-1.2-6.4-1.1-17.1,0.2-23.4C74.8,83,80.2,73,88.5,64.8c7.8-7.7,17.1-12.7,28.2-15.3c5.7-1.3,17.3-1.7,23.2-0.7c19.3,3.1,35,14.8,43.4,31.9c6.4,13.3,7.7,29.4,3.4,43.6c-1.3,4.4-1.1,6.5,0.9,8.3c1.5,1.4,4.7,1.8,6.7,0.7c4.4-2.3,7.7-20.7,6-34.2c-1.9-15.9-9.1-30.3-21-42c-9.7-9.6-21-15.8-34.4-19C138,36.5,125.6,36.3,118.5,37.6z"/><path fill="#000000" d="M125.6,94.4c-2.8,0.9-5.9,3.7-7.3,6.6c-1.2,2.3-1.4,3.2-1.4,6.2c0,2.9,0.2,3.9,1.2,5.8c1.4,2.8,3.6,4.8,6.4,6.3c3,1.5,8.1,1.5,11.1,0c4.7-2.3,7.3-6.2,7.7-11.2c0.4-5.4-2-10-6.7-12.7c-1.8-1-2.8-1.2-5.9-1.3C128.7,94,126.4,94.2,125.6,94.4z"/><path fill="#000000" d="M146.9,127.3c-2.2,1-3.4,2.9-3.4,5.2c0,1.7,2.5,6.7,19.6,38.8c10.8,20.3,20.2,37.4,20.8,38.1c1.5,1.5,3.4,2,5.4,1.3c0.8-0.3,6.2-4.3,11.9-9c8.6-7,10.5-8.7,10.9-10.1c1.2-3.5,1.8-2.7-29.8-34.1c-16.2-16.1-30.1-29.6-31-30.1C149.5,126.5,148.8,126.5,146.9,127.3z"/></g></g></g>
</svg>