<?xml version="1.0" encoding="utf-8"?>
<!-- Svg Vector Icons : http://www.onlinewebfonts.com/icon -->
<!DOCTYPE svg PUBLIC "-//W3C//DTD SVG 1.1//EN" "http://www.w3.org/Graphics/SVG/1.1/DTD/svg11.dtd">
<svg version="1.1" xmlns="http://www.w3.org/2000/svg" xmlns:xlink="http://www.w3.org/1999/xlink" x="0px" y="0px" viewBox="0 0 256 256" enable-background="new 0 0 256 256" xml:space="preserve">
<metadata> Svg Vector Icons : http://www.onlinewebfonts.com/icon </metadata>
<g><g><g><path fill="#000000" d="M89.1,20.6c-3.7,0.4-12,2.1-16.8,3.5c-4.7,1.3-14.3,4.9-15,5.6c-0.2,0.1-4.9,17.5-10.6,38.5c-5.6,21-10.5,39.2-10.9,40.4l-0.6,2.2l2.6-0.9c1.5-0.5,5.7-1.7,9.4-2.6c21.9-5.5,43.7-5.2,59.8,0.6c3.4,1.2,10.8,4.8,14.3,7l2,1.2l0.4-1.5c0.2-0.9,5.3-19.2,11.3-40.7l10.8-39.1l-1.6-1.3c-2.3-1.9-9.6-5.8-14.7-7.8c-5.5-2.2-13.6-4.2-19.3-4.9C106.3,20.3,93,20.1,89.1,20.6z"/><path fill="#000000" d="M157.8,44.3c-1.9,6.6-22.1,79.9-22.1,80.3c0,0.8,4.8,3.9,9.8,6.4c16.6,8.3,37.1,10.5,56.7,6.2c3-0.7,6.8-1.7,8.5-2.2c3.6-1.1,12.9-4.6,13.4-5.1c0.3-0.3,22.2-80.9,22-81.1c0,0-1.3,0.3-2.9,0.9c-4.3,1.5-13.1,3.7-19.2,4.7c-24,4.1-45.4,1.2-61.7-8.5c-2.2-1.3-4-2.4-4.1-2.4C158.1,43.5,157.9,43.9,157.8,44.3z"/><path fill="#000000" d="M67.2,113.8c-9.4,0.7-20,3.2-30.2,7.2c-3.5,1.3-5,2.2-5.3,2.9c-0.3,0.5-5.2,18.6-11,40.1C15,185.5,10.2,203.4,10,203.7c-0.1,0.4,0.9,0.3,3.2-0.5c18.5-6.3,41.9-8.1,58.8-4.5c8.4,1.9,18.2,5.7,23.5,9.4c1.2,0.9,2.3,1.4,2.4,1.3c0.2-0.2,22.5-80.6,22.5-81.2c0-0.3-1.8-1.7-3.9-3c-10.5-6.6-23.4-10.6-37.2-11.5c-3.4-0.2-6.4-0.4-6.6-0.4C72.5,113.3,70,113.5,67.2,113.8z"/><path fill="#000000" d="M120,180c-6.1,22.1-11.2,40.4-11.3,40.8c-0.2,0.9,4.8,4.2,11,7.1c11.4,5.5,22,7.8,35.2,7.8c7.8,0,12.6-0.5,19.9-1.9c5.4-1.1,16.3-4.7,20.1-6.5l2.6-1.3l10.6-39.4c5.8-21.7,10.7-39.9,10.9-40.4l0.3-1.1l-2.8,1c-1.6,0.5-5.3,1.6-8.3,2.3c-28.9,7.3-54.7,5-73.8-6.5c-1.8-1.1-3.3-2-3.3-2C131.2,139.8,126.1,157.9,120,180z"/></g></g></g>
</svg>